<?xml version="1.0" encoding="utf-8"?>
<!-- Generator: Adobe Illustrator 18.1.1, SVG Export Plug-In . SVG Version: 6.00 Build 0)  -->
<svg version="1.1" id="Layer_1" xmlns="http://www.w3.org/2000/svg" xmlns:xlink="http://www.w3.org/1999/xlink" x="0px" y="0px"
	 viewBox="-400 238 68.7 69.7" enable-background="new -400 238 68.7 69.7" xml:space="preserve">
<g>
	<path fill="#512200" stroke="#000000" stroke-miterlimit="10" d="M-344.6,267.7c0.7,2.6,1.1,5.5,1.1,8.4c0,0.3,0,0.7,0,1l3.4,1.3
		l2.8-2.4l2.2,2.6l-4.3,3.5l-4.4-1.8c-0.5,3.9-1.7,7.6-3.4,10.7l0.6-0.8l3.3,1.9l3.2-1.9l1.8,2.9l-4.7,2.9l-5.2-3.1
		c-4.1,6.3-10.4,10.4-17.5,10.4c-7.1,0-13.4-4.1-17.5-10.4l-5.1,3l-4.7-2.9l1.8-2.9l3.2,1.9l3.3-1.9l0.2,0.3
		c-1.6-3-2.7-6.5-3.1-10.2l-4.3,1.7l-4.3-3.5l2.2-2.6l2.8,2.4l3.3-1.3c0-0.4,0-0.7,0-1.1c0-2.9,0.4-5.7,1.1-8.4l-5.6-0.2l-2.4-4.9
		l3-1.5l1.6,3.3l3.8,0.2l0.1,1.1c2.3-6.8,6.8-12.3,12.4-15c0.1-2.1,1.8-3.8,4-3.8h9.3c2.2,0,4,1.8,4,4c0,0.1,0,0.2,0,0.3
		c5.3,2.9,9.5,8.3,11.6,14.9l0.1-1.5l3.8-0.2l1.6-3.3l3,1.5l-2.4,4.9L-344.6,267.7z"/>
	<polygon fill="#512200" stroke="#000000" stroke-miterlimit="10" points="-354.5,243.4 -354.9,244.6 -355.6,244.9 -357,245.3 
		-358.2,246 -359.9,246.9 -359.9,246 -358,244.6 -356.6,244.2 -355.4,243.4 -354.7,242 -353.4,241.5 -353.7,242.8 	"/>
	<polygon fill="#512200" stroke="#000000" stroke-miterlimit="10" points="-373.6,245.3 -375,244.9 -375.7,244.6 -376.1,243.4 
		-376.9,242.8 -377.2,241.5 -375.9,242 -375.2,243.4 -374,244.2 -372.6,244.6 -370.7,246 -370.7,246.9 -372.4,246 	"/>
</g>
<text transform="matrix(1 0 0 1 -402.7408 322.4445)" font-family="'HelveticaNeue-Bold'" font-size="3.7037">Created by Andrey Semenenko</text>
<text transform="matrix(1 0 0 1 -402.7408 326.1484)" font-family="'HelveticaNeue-Bold'" font-size="3.7037">from the Noun Project</text>
</svg>
